<svg xmlns="http://www.w3.org/2000/svg" viewBox="0 0 640 420" role="img" aria-labelledby="title desc">
  <title id="title">Alpha Dog dashboard thumbnail</title>
  <desc id="desc">Abstract trading dashboard with ranked option strategy rows and signal panels.</desc>
  <rect width="640" height="420" fill="#07110d"/>
  <circle cx="540" cy="70" r="150" fill="#22c55e" opacity=".16"/>
  <circle cx="95" cy="335" r="135" fill="#f97316" opacity=".14"/>
  <rect x="54" y="56" width="532" height="308" rx="24" fill="#101816" stroke="#d9f99d" stroke-opacity=".22"/>
  <rect x="82" y="88" width="170" height="44" rx="12" fill="#17231e"/>
  <rect x="104" y="105" width="86" height="10" rx="5" fill="#bbf7d0"/>
  <rect x="276" y="88" width="130" height="44" rx="12" fill="#17231e"/>
  <rect x="298" y="105" width="72" height="10" rx="5" fill="#fb923c"/>
  <rect x="430" y="88" width="128" height="44" rx="12" fill="#17231e"/>
  <rect x="452" y="105" width="68" height="10" rx="5" fill="#38bdf8"/>
  <g opacity=".92">
    <rect x="82" y="168" width="476" height="42" rx="12" fill="#14211b"/>
    <rect x="104" y="183" width="78" height="10" rx="5" fill="#f8fafc"/>
    <rect x="220" y="183" width="128" height="10" rx="5" fill="#22c55e"/>
    <rect x="390" y="183" width="118" height="10" rx="5" fill="#f97316"/>
    <rect x="82" y="230" width="476" height="42" rx="12" fill="#14211b"/>
    <rect x="104" y="245" width="96" height="10" rx="5" fill="#f8fafc"/>
    <rect x="220" y="245" width="106" height="10" rx="5" fill="#22c55e"/>
    <rect x="390" y="245" width="88" height="10" rx="5" fill="#38bdf8"/>
    <rect x="82" y="292" width="476" height="42" rx="12" fill="#14211b"/>
    <rect x="104" y="307" width="70" height="10" rx="5" fill="#f8fafc"/>
    <rect x="220" y="307" width="152" height="10" rx="5" fill="#22c55e"/>
    <rect x="390" y="307" width="104" height="10" rx="5" fill="#f97316"/>
  </g>
  <path d="M96 354c78-104 150-140 216-108 58 28 92 11 138-66 22-37 48-61 78-72" fill="none" stroke="#bbf7d0" stroke-width="7" stroke-linecap="round" opacity=".58"/>
</svg>
