<svg xmlns="http://www.w3.org/2000/svg" viewBox="0 0 640 420" role="img" aria-labelledby="title desc">
  <title id="title">Signal Scribe backend thumbnail</title>
  <desc id="desc">Abstract SEC filing pipeline with documents, analysis nodes, storage, and API output.</desc>
  <rect width="640" height="420" fill="#080b14"/>
  <circle cx="106" cy="92" r="138" fill="#2563eb" opacity=".18"/>
  <circle cx="520" cy="322" r="156" fill="#a855f7" opacity=".16"/>
  <rect x="58" y="76" width="142" height="188" rx="18" fill="#111827" stroke="#7dd3fc" stroke-opacity=".28"/>
  <rect x="86" y="112" width="76" height="9" rx="4.5" fill="#e0f2fe"/>
  <rect x="86" y="142" width="88" height="8" rx="4" fill="#38bdf8" opacity=".8"/>
  <rect x="86" y="166" width="58" height="8" rx="4" fill="#38bdf8" opacity=".55"/>
  <rect x="86" y="190" width="82" height="8" rx="4" fill="#38bdf8" opacity=".65"/>
  <rect x="251" y="94" width="142" height="82" rx="18" fill="#111827" stroke="#c4b5fd" stroke-opacity=".3"/>
  <rect x="279" y="126" width="86" height="10" rx="5" fill="#c4b5fd"/>
  <rect x="251" y="244" width="142" height="82" rx="18" fill="#111827" stroke="#22c55e" stroke-opacity=".28"/>
  <rect x="279" y="276" width="86" height="10" rx="5" fill="#86efac"/>
  <rect x="444" y="132" width="138" height="156" rx="20" fill="#111827" stroke="#f8fafc" stroke-opacity=".2"/>
  <rect x="474" y="166" width="76" height="10" rx="5" fill="#f8fafc"/>
  <rect x="474" y="198" width="86" height="8" rx="4" fill="#a78bfa"/>
  <rect x="474" y="222" width="58" height="8" rx="4" fill="#60a5fa"/>
  <rect x="474" y="246" width="74" height="8" rx="4" fill="#86efac"/>
  <g fill="none" stroke-linecap="round" stroke-width="7" opacity=".72">
    <path d="M200 164h50" stroke="#7dd3fc"/>
    <path d="M322 176v68" stroke="#c4b5fd"/>
    <path d="M393 286h51" stroke="#86efac"/>
    <path d="M393 136h51" stroke="#a78bfa"/>
  </g>
  <g fill="#f8fafc" opacity=".9">
    <circle cx="220" cy="164" r="5"/>
    <circle cx="322" cy="210" r="5"/>
    <circle cx="420" cy="286" r="5"/>
    <circle cx="420" cy="136" r="5"/>
  </g>
  <path d="M70 344c64-30 125-34 183-12 67 26 134 20 201-18 38-22 75-31 112-27" fill="none" stroke="#60a5fa" stroke-width="6" stroke-linecap="round" opacity=".35"/>
</svg>
